<?xml version="1.0" encoding="UTF-8" standalone="no"?>
<!-- Created with Inkscape (http://www.inkscape.org/) -->

<svg
   version="1.1"
   id="svg1"
   width="481"
   height="596"
   viewBox="0 0 481 596"
   sodipodi:docname="logo-site.svg"
   inkscape:version="1.4.3 (0d15f75, 2025-12-25)"
   xmlns:inkscape="http://www.inkscape.org/namespaces/inkscape"
   xmlns:sodipodi="http://sodipodi.sourceforge.net/DTD/sodipodi-0.dtd"
   xmlns="http://www.w3.org/2000/svg"
   xmlns:svg="http://www.w3.org/2000/svg">
  <defs
     id="defs1" />
  <sodipodi:namedview
     id="namedview1"
     pagecolor="#ffffff"
     bordercolor="#000000"
     borderopacity="0.25"
     inkscape:showpageshadow="2"
     inkscape:pageopacity="0.0"
     inkscape:pagecheckerboard="0"
     inkscape:deskcolor="#d1d1d1"
     inkscape:zoom="1.4098033"
     inkscape:cx="216.34223"
     inkscape:cy="295.43128"
     inkscape:window-width="2560"
     inkscape:window-height="1369"
     inkscape:window-x="-8"
     inkscape:window-y="-8"
     inkscape:window-maximized="1"
     inkscape:current-layer="g1" />
  <g
     inkscape:groupmode="layer"
     inkscape:label="Image"
     id="g1">
    <path
       style="fill:#eef3f7"
       d="m 164.52265,556.87451 c 0,0 -0.87576,3.11092 3.04956,-22.87451 3.0325,-20.075 6.41974,-42.10341 7.5272,-48.95201 1.10746,-6.84861 2.27393,-15.24013 2.59214,-18.64783 l 0.57858,-6.19582 -11.48168,-16.85217 C 160.47353,434.08348 142.99105,408.05 127.9385,385.5 112.88594,362.95 99.94012,342.59219 99.170001,340.26042 l -1.400215,-4.23957 0.654971,-4.36766 0.654971,-4.36766 10.806792,-19.39277 c 5.94373,-10.66602 16.5075,-29.19983 23.47505,-41.18626 6.96754,-11.98642 13.73319,-23.48045 15.03477,-25.5423 1.30159,-2.06184 3.95628,-5.14463 5.89932,-6.85064 1.94304,-1.70602 5.18668,-3.64767 7.20809,-4.3148 2.02141,-0.66712 4.96629,-0.95475 6.54418,-0.63917 1.57788,0.31557 16.0501,5.3588 32.16048,11.20716 16.11037,5.84837 35.36659,12.785 42.79159,15.41475 7.425,2.62974 14.7375,5.35694 16.25,6.06044 l 2.75,1.27909 0.0969,3.08949 c 0.0533,1.69921 0.0115,4.88948 -0.0929,7.08948 -0.10439,2.2 -0.81662,5.50219 -1.58272,7.3382 -0.7661,1.83601 -2.84268,5.16868 -4.61463,7.40595 -1.77194,2.23726 -5.84057,5.7604 -9.04139,7.82919 -3.20082,2.06879 -8.59481,4.69861 -11.98663,5.84405 L 228.61166,304 l -8.05583,-0.0119 c -4.43071,-0.007 -10.32659,-0.61659 -13.10196,-1.35571 -2.77537,-0.73911 -6.15037,-1.90844 -7.5,-2.59851 -1.34963,-0.69006 -6.43434,-5.1425 -11.29935,-9.89429 l -8.84548,-8.63962 0.5535,3 c 0.30443,1.65 1.10421,6.45217 1.77729,10.67149 l 1.22379,7.67149 -1.16132,3.87612 c -0.63872,2.13187 -2.49123,5.88395 -4.1167,8.33795 -1.62546,2.45399 -5.00968,5.76032 -7.52049,7.34739 -2.51081,1.58707 -4.56511,3.00358 -4.56511,3.1478 0,0.14422 5.2875,1.92148 11.75,3.94946 6.4625,2.02798 16.475,5.31274 22.25,7.29946 5.775,1.98672 11.15735,4.85176 12.51629,5.65553 12.52081,7.40565 21.06354,16.61314 28.84371,20.54334 0.2568,0.12973 6.09199,6.4125 12.89839,14.25 6.8064,7.8375 16.50987,19.74702 21.56327,26.46561 5.0534,6.71858 12.24183,17.06858 15.97428,23 3.73246,5.93141 9.5387,15.73439 12.90278,21.78439 3.36407,6.05 10.24583,18.875 15.2928,28.5 5.04697,9.625 9.58855,17.9275 10.09239,18.45 C 330.60996,495.99552 331,514.83558 331,539.7 l 2.00626,16.96788 -6.75,0.0804 c -3.7125,0.0442 -39.375,0.15674 -79.25,0.25 -39.875,0.0933 -72.04124,-0.12383 -75.39043,-0.12381 z M 345.81634,505.87362 C 342.96689,499.61813 334.71238,482.8 327.473,468.5 c -7.23939,-14.3 -16.4355,-31.4 -20.43579,-38 -4.0003,-6.6 -11.30687,-17.74902 -16.23682,-24.77561 -4.92995,-7.02658 -13.36911,-18.05158 -18.75369,-24.5 C 266.66213,374.77598 258.47064,365.9 253.84339,361.5 c -4.62724,-4.4 -10.56917,-9.9533 -13.20429,-12.34066 -2.63511,-2.38736 -4.64441,-4.44559 -4.46511,-4.57384 0.17931,-0.12824 1.67601,-1.15761 3.32601,-2.28748 1.65,-1.12987 8.95695,-5.45929 16.23766,-9.62094 l 13.23766,-7.56663 8.09151,3.80336 8.0915,3.80336 -4.82916,2.82768 c -2.65605,1.55523 -8.59477,5.25577 -13.19716,8.22343 l -8.36799,5.39574 0.96213,0.96213 0.96213,0.96213 13.43436,-8.47702 13.43435,-8.47702 8.85352,0.68288 8.85352,0.68288 1.33229,2.01254 1.33229,2.01254 -17.4643,10.89747 C 280.85894,356.41616 273,361.69802 273,362.16001 c 0,0.462 0.60265,0.83999 1.33922,0.83999 0.73657,0 8.90927,-4.71858 18.16155,-10.48573 l 16.82234,-10.48572 5.08845,4.6513 c 2.79864,2.55821 5.46471,4.97555 5.92459,5.37187 0.45988,0.39632 -3.25262,3.24681 -8.25,6.33443 -4.99738,3.08762 -13.17492,8.14008 -18.1723,11.2277 l -9.08615,5.61385 1.01104,1.01104 1.01103,1.01103 18.71869,-11.51387 18.71868,-11.51387 3.5692,1.49131 c 1.96306,0.82021 6.59921,2.00776 10.30254,2.63898 l 6.73335,1.14768 -23.96928,14.93052 c -13.1831,8.21178 -23.8351,15.33303 -23.67111,15.825 0.16399,0.49196 0.66211,0.92117 1.10694,0.9538 0.44482,0.0326 22.70857,-13.58085 49.475,-30.25217 26.76642,-16.67132 51.36001,-32.0051 54.65242,-34.07506 l 5.9862,-3.76358 -1.64196,-0.63008 -1.64196,-0.63008 -21.1315,13.20024 c -11.62232,7.26013 -21.28081,13.0295 -21.46331,12.82082 -0.1825,-0.20867 3.57192,-6.45441 8.34316,-13.87941 l 8.67498,-13.5 5.7693,-3.87479 5.7693,-3.8748 -0.99816,-0.99816 -0.99816,-0.99816 -3.21608,2.29005 c -1.76884,1.25952 -3.04101,1.87735 -2.82704,1.37295 0.21397,-0.5044 2.15276,-4.06709 4.30842,-7.91709 2.15566,-3.85 4.05756,-7.1769 4.22645,-7.39311 0.16888,-0.21622 2.57524,0.5495 5.34747,1.70158 2.77222,1.15209 9.27056,4.58428 14.44074,7.62709 5.17018,3.04282 13.09568,8.31693 17.61223,11.72024 4.51654,3.40332 12.14064,9.92657 16.94246,14.49612 4.80181,4.56954 11.48968,11.87489 14.86192,16.2341 l 6.13137,7.92583 -21.91512,16.34407 c -12.05331,8.98925 -21.94927,16.64902 -21.99101,17.02173 -0.0417,0.37271 4.79662,8.24771 10.75193,17.5 5.9553,9.25229 12.74447,20.06445 15.08703,24.02702 2.34257,3.96256 4.00666,7.6133 3.69798,8.11275 -0.30867,0.49944 -6.76034,5.54233 -14.33703,11.20642 -7.5767,5.66408 -16.25081,12.18182 -19.27581,14.48387 -3.025,2.30205 -19,13.98719 -35.5,25.96698 -16.5,11.97978 -30.56314,22.22943 -31.25142,22.77699 l -1.25141,0.99556 z m 15.64244,-130.35281 c 27.74053,-17.31356 52.98216,-33.1071 56.09251,-35.09677 l 5.65518,-3.61757 -0.95089,-0.95089 -0.95089,-0.95089 -55.85037,34.89175 c -30.71771,19.19045 -56.02377,35.4119 -56.23568,36.04765 -0.21192,0.63575 0.10702,1.15591 0.70875,1.15591 0.60173,0 23.79085,-14.16564 51.53139,-31.47919 z m 95.18773,58.00038 c -0.31211,-0.81334 -5.79349,-9.87654 -12.18083,-20.14045 l -11.61336,-18.66164 1.32384,-1.22383 c 0.72811,-0.6731 8.60715,-6.9099 17.50898,-13.85955 C 460.58697,372.68608 468.16023,367 468.5146,367 c 0.35437,0 0.37951,1.2375 0.0559,2.75 -0.32365,1.5125 -1.91316,11.75 -3.53225,22.75 -1.6191,11 -3.72415,25.0625 -4.6779,31.25 -0.95374,6.1875 -2.05184,11.25 -2.44021,11.25 -0.38837,0 -0.96148,-0.66546 -1.27359,-1.47881 z M 335.30027,346.04944 c -2.30985,-1.04866 -6.85606,-3.71052 -10.10267,-5.91525 -3.53787,-2.40252 -6.40802,-5.22798 -7.16355,-7.05199 -0.69334,-1.67386 -0.97993,-4.16168 -0.63688,-5.52851 0.34305,-1.36682 5.0459,-10.26305 10.45078,-19.76941 5.40489,-9.50635 14.90409,-26.28428 21.10934,-37.28428 6.20526,-11 12.36195,-21.44372 13.68155,-23.20826 l 2.39927,-3.20826 3.55747,-0.66739 c 1.97905,-0.37127 4.61597,-0.1851 5.94311,0.41959 1.31211,0.59783 5.66517,3.75867 9.67348,7.02409 4.00831,3.26542 8.50146,7.22033 9.98478,8.78868 1.48333,1.56835 3.39583,4.5246 4.25,6.56943 l 1.55305,3.71788 -0.0136,8.28212 c -0.008,4.55517 -0.27875,9.27071 -0.60274,10.479 l -0.58909,2.19687 -3.63245,-1.94687 C 393.16422,287.87609 390.49603,287 389.23277,287 h -2.29686 l -6.71795,10.53685 c -3.69488,5.79527 -11.96359,18.69956 -18.3749,28.6762 l -11.65695,18.13935 -3.34305,1.78188 c -1.83869,0.98004 -4.24306,1.79087 -5.34306,1.80184 -1.1,0.011 -3.88988,-0.83803 -6.19973,-1.88668 z M 229.02752,330.67221 c -3.00986,-1.71415 -10.25365,-5.1802 -16.09731,-7.70233 l -10.62483,-4.58569 11.09731,-1.29275 c 6.10352,-0.71101 15.20081,-2.33157 20.21619,-3.60123 5.01539,-1.26967 12.56095,-3.89882 16.76791,-5.84255 4.20696,-1.94374 7.30346,-2.92117 6.88112,-2.17207 -0.42235,0.7491 -4.90012,6.70139 -9.9506,13.2273 -5.05048,6.52592 -10.00048,12.58995 -11,13.47563 L 234.5,333.78885 Z m 64.13436,-8.2873 c -2.38596,-0.83579 -7.21369,-3.10024 -10.72828,-5.0321 -3.51458,-1.93186 -7.48681,-4.81577 -8.82716,-6.40869 -1.34035,-1.59291 -2.72977,-4.22917 -3.0876,-5.85834 l -0.65059,-2.96212 3.46149,-7.81183 c 1.90382,-4.29651 8.06751,-17.26183 13.6971,-28.81183 5.62959,-11.55 14.84546,-30.51537 20.47971,-42.14526 l 10.24411,-21.14526 2.5189,-1.65044 c 1.38539,-0.90775 4.05041,-1.89898 5.92225,-2.20274 2.04669,-0.33213 4.91904,0.081 7.20561,1.03639 2.09124,0.87378 8.28308,4.52456 13.75965,8.11286 l 9.9574,6.52418 1.5457,3.69937 c 0.90578,2.16784 1.34103,5.22526 1.05134,7.38509 -0.2719,2.02714 -3.39731,9.01823 -6.94535,15.53576 -3.54805,6.51753 -11.74662,21.52505 -18.21904,33.35005 -6.47242,11.825 -14.89569,27.00136 -18.71838,33.72524 -3.82268,6.72388 -8.10866,13.13638 -9.52439,14.25 -1.41574,1.11362 -3.97588,2.00328 -5.68921,1.97702 -1.71333,-0.0263 -5.06729,-0.73156 -7.45326,-1.56735 z M 104,280.40505 c -3.575,-1.37346 -11.9,-5.13991 -18.5,-8.36989 -6.6,-3.22999 -16.95,-9.11395 -23,-13.07548 -6.05,-3.96153 -13.25,-9.04982 -16,-11.30733 -2.75,-2.2575 -8.546151,-7.2653 -12.880336,-11.12845 -4.334185,-3.86314 -10.337326,-10.15935 -13.340313,-13.99156 l -5.459977,-6.96766 1.909896,-1.53234 C 17.779713,213.18955 25.247662,208.45 33.324712,203.5 l 14.685546,-9 -0.354855,-1.5 C 47.460234,192.175 42.47908,184.12635 36.586173,175.1141 30.693266,166.10186 26.238143,158.40922 26.685898,158.01936 27.133654,157.6295 44.6,146.80943 65.5,133.97476 86.4,121.1401 106.875,108.47403 111,105.82794 l 7.5,-4.81107 1,1.65147 c 0.55,0.90832 4.99732,7.76702 9.88294,15.24157 4.88562,7.47455 13.28202,19.21509 18.65867,26.09009 5.37665,6.875 13.75433,16.85027 18.61706,22.16728 4.86273,5.317 13.59781,14.13652 19.41128,19.59894 5.81347,5.46242 15.03847,13.49015 20.5,17.83942 5.46153,4.34926 15.78005,11.79763 22.93005,16.55193 7.15,4.7543 17.725,11.07027 23.5,14.03548 5.775,2.96521 14.6625,7.33485 19.75,9.71031 5.0875,2.37546 9.25,4.75438 9.25,5.28649 0,0.5321 -1.89025,5.03584 -4.20056,10.00831 l -4.20056,9.04085 -1.32444,-5.83167 c -0.72845,-3.20741 -2.26718,-6.83516 -3.41941,-8.06166 l -2.09497,-2.22999 -24.13003,-8.93171 c -13.27152,-4.91244 -25.90398,-9.50189 -28.07214,-10.1988 l -3.9421,-1.26709 2.90302,-2.31479 c 1.59667,-1.27314 2.59126,-2.62656 2.21021,-3.00761 -0.38105,-0.38105 -2.61346,0.31353 -4.96092,1.54352 l -4.2681,2.23634 -8.25,-3.17531 c -4.5375,-1.74642 -8.25,-3.29696 -8.25,-3.44564 0,-0.14868 2.7386,-1.96069 6.08578,-4.02668 l 6.08578,-3.75636 -0.98163,-0.98163 -0.98163,-0.98163 -6.79102,4.09585 C 189.68223,220.15687 186.10581,222 185.46969,222 c -0.63613,0 -3.77248,-0.9 -6.96969,-2 -3.19721,-1.1 -6.89421,-2 -8.21557,-2 -1.32135,0 -2.16711,-0.38081 -1.87945,-0.84625 0.28766,-0.46544 4.58169,-3.27794 9.5423,-6.25 4.9606,-2.97206 9.02681,-6.01439 9.036,-6.76074 0.009,-0.74634 -0.54578,-1.13806 -1.23328,-0.87049 -0.6875,0.26757 -6.54042,3.65678 -13.00649,7.53158 -6.46608,3.87479 -13.44108,7.59725 -15.5,8.27212 -2.05893,0.67486 -4.86851,1.923 -6.24351,2.77362 -1.375,0.85062 -4.77974,3.59489 -7.56609,6.09837 -2.78634,2.50349 -15.26049,10.80386 -27.72033,18.44529 -12.45983,7.64142 -22.416037,14.27892 -22.124895,14.75 0.291142,0.47107 0.851066,0.8565 1.244276,0.8565 0.39321,0 10.120279,-5.84637 21.615709,-12.99194 11.49543,-7.14557 21.05845,-12.83427 21.25115,-12.64157 0.1927,0.1927 -2.71318,5.70157 -6.45752,12.24194 l -6.80789,11.89157 -4.49001,3 c -2.46951,1.65 -5.56906,3.70619 -6.8879,4.56931 -1.39655,0.91399 -2.09775,2.05493 -1.67916,2.73223 l 0.71872,1.16291 3.9321,-2.48223 C 118.19081,268.117 120.22484,267 120.54822,267 c 0.32338,0 -0.28496,1.2375 -1.35188,2.75 -1.06691,1.5125 -3.13014,5.1125 -4.58494,8 -1.4548,2.8875 -2.97501,5.228 -3.37825,5.20112 -0.40323,-0.0269 -3.65815,-1.17262 -7.23315,-2.54607 z m 3.24452,-62.76634 C 128.83503,204.24 150.2125,190.91996 154.75,188.03862 159.2875,185.15729 163,182.39487 163,181.89991 163,181.40496 162.53159,181 161.95909,181 c -0.57251,0 -17.78501,10.43249 -38.25,23.18332 -20.465,12.75082 -41.82159,26.0584 -47.45909,29.57239 -5.6375,3.514 -10.25,6.8065 -10.25,7.31669 0,0.51018 0.447533,0.9276 0.994518,0.9276 0.546986,0 18.659486,-10.96258 40.250002,-24.36129 z m 168.72058,15.52715 c -5.7942,-2.61423 -13.6692,-6.49698 -17.5,-8.62833 -3.83081,-2.13135 -11.6901,-6.78422 -17.4651,-10.33972 -5.775,-3.5555 -15.45,-10.1435 -21.5,-14.64 -6.05,-4.4965 -16.625,-13.37662 -23.5,-19.73359 -6.875,-6.35697 -15.46604,-14.6555 -19.0912,-18.44118 L 170.31761,154.5 168.59047,147 c -0.94993,-4.125 -3.94166,-17.4 -6.64828,-29.5 -2.70663,-12.1 -6.51446,-28.975 -8.46184,-37.5 -1.94738,-8.525 -4.68819,-20.675 -6.09068,-27 -1.49352,-6.735482 -2.36337,-13.235509 -2.09955,-15.688955 0.24774,-2.303925 1.33595,-5.903925 2.41823,-8 1.08228,-2.096075 3.83028,-5.238951 6.10667,-6.98417 2.35124,-1.802612 6.46904,-3.694592 9.53385,-4.380467 l 5.39497,-1.207341 5.32195,1.276715 5.32195,1.276716 4.66018,4.660188 4.66019,4.660188 2.05839,6.443563 c 1.13212,3.54396 3.64869,11.843563 5.59239,18.443563 1.9437,6.6 7.19593,24.375 11.67163,39.5 4.47569,15.125 12.83793,43.25 18.58276,62.5 5.74482,19.25 11.15201,36.63578 12.01598,38.63507 0.86396,1.99929 2.67199,4.13679 4.01784,4.75 1.34585,0.61321 3.96869,1.11493 5.82852,1.11493 1.85984,0 4.0505,-0.66898 4.86814,-1.48662 0.81764,-0.81764 2.16989,-3.63014 3.005,-6.25 0.83511,-2.61986 4.49564,-14.21338 8.1345,-25.76338 3.63886,-11.55 10.83282,-34.275 15.98656,-50.5 5.15375,-16.225 14.09159,-44.267724 19.86188,-62.317165 5.99438,-18.750425 11.59133,-34.47924 13.05747,-36.694723 1.41133,-2.132658 4.71362,-5.138308 7.33844,-6.679222 L 325.5,7.5072273 l 6,0.041574 6,0.041574 4,2.1074946 c 2.2,1.1591221 4.99102,3.1699281 6.20227,4.4684591 1.21125,1.298531 2.94127,4.129634 3.84449,6.29134 0.90322,2.161705 1.61485,5.980564 1.5814,8.486352 C 353.09471,31.44981 347.87487,52.85 341.52852,76.5 c -6.34635,23.65 -13.82389,51.55 -16.61675,62 -2.79285,10.45 -7.49091,27.58421 -10.44013,38.07601 l -5.3622,19.07602 -10.21375,21.17398 c -5.61756,11.6457 -10.70469,21.15577 -11.30472,21.13349 -0.60003,-0.0223 -5.83168,-2.17941 -11.62587,-4.79364 z M 14.266479,205.91442 c 0.311207,-1.32793 2.036337,-11.07692 3.833621,-21.66442 1.797285,-10.5875 3.522515,-19.24887 3.833845,-19.24749 0.31133,0.001 4.166055,5.72066 8.566055,12.70951 4.4,6.98885 8,13.24187 8,13.8956 0,0.65374 -4.916252,4.42881 -10.925005,8.38904 -6.008753,3.96023 -11.588607,7.45507 -12.399676,7.76631 l -1.474671,0.56588 z"
       id="path4"
       sodipodi:nodetypes="cssscssscccssssssssscssssssccssscsscssssssssssssssscssscsssssssssscccsscccccccccsssscsssscccccsscssssscccssscccccssssssssscssssssssscssscccsssssscsssssssssssssssscsssssccscsscsscssssscsssssscssssscssscsssscsssssssssssssscsscssssscssssssssssscsscsscssscssscccsssssscssssssssssscssscssssssssssssssssssssscsssssssscccccsssssssssssssscccssssssscssssscsssscs" />
  </g>
</svg>
